<svg xmlns="http://www.w3.org/2000/svg" viewBox="398 170 124 124" width="124" height="124" role="img" aria-label="GALADRIEL historical profile mark"><title>GALADRIEL historical profile mark</title><desc>Archived design extracted from a historical portfolio SVG. This image makes no current product or release claim.</desc><defs><filter id="soft" x="-60%" y="-60%" width="220%" height="220%">
      <feGaussianBlur stdDeviation="4" result="b" />
      <feMerge><feMergeNode in="b" /><feMergeNode in="SourceGraphic" /></feMerge>
    </filter>
    </defs><style>:root{--hub-accent: #34d399; --cube-accent: #fb923c; --tri-accent: #a78bfa;}
.gal-seat{fill: #ef4444; fill-opacity: 0.07; filter: url(#soft);}
.gal-plate{fill: #131c28; stroke: #8b97a6; stroke-opacity: 0.6; stroke-width: 1.3; stroke-linejoin: miter;}
.gal-slit{fill: #05070b; stroke: #8b97a6; stroke-opacity: 0.5; stroke-width: 0.8; stroke-linejoin: miter;}
.gal-chan{fill: none; stroke: #b9c2cd; stroke-width: 1.2; stroke-linecap: round; stroke-opacity: 0.72;}
.gal-node{fill: #b9c2cd;}
.gal-hotf{fill: #ef4444;}
:root{--hub-accent: #059669; --cube-accent: #c2410c; --tri-accent: #7c3aed;}
.gal-seat{fill: #dc2626; fill-opacity: 0.05;}
.gal-plate{fill: #ffffff; stroke: #6b7684;}
.gal-slit{fill: #111827; stroke: #6b7684;}
.gal-chan{stroke: #59636f;}
.gal-node{fill: #59636f;}
.gal-hotf{fill: #dc2626;}</style><g class="nodes"><g class="gal">
    <circle cx="460" cy="232" r="34" class="gal-seat" />
    <defs>
      <radialGradient id="galEye" gradientUnits="userSpaceOnUse" cx="460" cy="223.4" r="8">
        <stop offset="0%" stop-color="#ff6b5e" stop-opacity="0.9" />
        <stop offset="55%" stop-color="#ef4444" stop-opacity="0.45" />
        <stop offset="100%" stop-color="#ef4444" stop-opacity="0" />
      </radialGradient>
      <clipPath id="galSlit" clipPathUnits="userSpaceOnUse"><path d="M440.8 223.4 L444.4 220 L475.6 220 L479.2 223.4 L475.6 226.8 L444.4 226.8 Z" /></clipPath>
    </defs>
    <path d="M438.2 211.7 L446.5 205 L473.5 205 L481.8 211.7 L481.8 232 L477.7 242.9 L460 259 L442.3 242.9 L438.2 232 Z" class="gal-plate" />
    <path d="M460 253.3 L460 227.3" class="gal-chan" /><path d="M450.6 244 L450.6 237.2 L455.8 232 L464.2 232 L469.4 237.2 L469.4 244" class="gal-chan" fill="none" /><circle cx="460" cy="253.3" r="1.5" class="gal-node" /><circle cx="450.6" cy="244" r="1.5" class="gal-node" /><circle cx="469.4" cy="244" r="1.5" class="gal-node" />
    <path d="M440.8 223.4 L444.4 220 L475.6 220 L479.2 223.4 L475.6 226.8 L444.4 226.8 Z" class="gal-slit" />
    <g clip-path="url(#galSlit)">
      <g>
        <ellipse cx="460" cy="223.4" rx="8" ry="3" fill="url(#galEye)" />
        <rect x="456.4" y="222.2" width="7.2" height="2.4" rx="1.2" class="gal-hotf" />
        <animateTransform attributeName="transform" type="translate" values="0 0;10.9 0;-10.9 0;0 0" keyTimes="0;0.25;0.75;1" calcMode="spline" keySplines="0.45 0 0.55 1;0.45 0 0.55 1;0.45 0 0.55 1" dur="3.6s" repeatCount="indefinite" />
      </g>
    </g>
    </g>
  </g></svg>
