<svg xmlns="http://www.w3.org/2000/svg" viewBox="268 66 124 124" width="124" height="124" role="img" aria-label="HALDIR historical profile mark"><title>HALDIR historical profile mark</title><desc>Archived design extracted from a historical portfolio SVG. This image makes no current product or release claim.</desc><defs><filter id="hdBloom" x="-40%" y="-40%" width="180%" height="180%">
      <feGaussianBlur stdDeviation="1.5" result="b" />
      <feMerge><feMergeNode in="b" /><feMergeNode in="SourceGraphic" /></feMerge>
    </filter>
    <radialGradient id="hdGrad" cx="50%" cy="40%" r="68%">
      <stop offset="0%" stop-color="#042f2a" />
      <stop offset="100%" stop-color="#10131a" />
    </radialGradient>
    <filter id="nodeShadow" x="-40%" y="-40%" width="180%" height="180%">
      <feDropShadow dx="0" dy="1.5" stdDeviation="2.4" flood-color="#000000" flood-opacity="0.38" />
    </filter>
    </defs><style>:root{--hub-accent: #34d399; --cube-accent: #fb923c; --tri-accent: #a78bfa;}
.seat-ring{fill: none; stroke-width: 2.2;}
.seat-groove{fill: none; stroke: #05070b; stroke-opacity: 0.5; stroke-width: 1;}
.seat-hairline{fill: none; stroke: #2b333d; stroke-opacity: 0.55; stroke-width: 1;}
.seat-hd{fill: url(#hdGrad);}
.hd-void{fill: #03211d;}
.hd-frame{fill: url(#haldirArch); stroke: #0f766e; stroke-width: 0.5; stroke-opacity: 0.7;}
.hd-reed{fill: none; stroke: #0f766e; stroke-width: 0.6; stroke-opacity: 0.5; stroke-linecap: round;}
.hd-speed{fill: none; stroke: #5eead4; stroke-width: 0.6; stroke-opacity: 0.4; stroke-linecap: round;}
.hd-thresh{fill: none; stroke: #2dd4bf; stroke-width: 1.6; stroke-linecap: round; stroke-opacity: 0.85;}
.hd-beam{fill: none; stroke: #ef4444; stroke-width: 1.4; stroke-linecap: round; stroke-opacity: 0.92;}
.hd-diode{fill: #ff3b47;}
.hd-diode-hot{fill: #ffe1dd;}
.hd-core{fill: #ef4444;}
.hd-core-facet{fill: #ff9d94; fill-opacity: 0.95;}
.hd-core-hot{fill: #fff1f0;}
.hd-coreglow{fill: url(#hdCoreGlow);}
.hd-sun{fill: none; stroke: #ff6b5e; stroke-width: 0.8; stroke-opacity: 0.85; stroke-linecap: round;}
.hd-scan{fill: #ffd9d4;}
.hd-tok-in{fill: #ff6b5e;}
.hd-tok-out{fill: #fff1f0;}
.hd-flash{fill: #fff1f0;}
:root{--hub-accent: #059669; --cube-accent: #c2410c; --tri-accent: #7c3aed;}</style><g class="nodes"><g>
    <defs>
      <linearGradient id="haldirArch" x1="0" y1="101" x2="0" y2="150" gradientUnits="userSpaceOnUse">
        <stop offset="0%" stop-color="#99f6e4" /><stop offset="50%" stop-color="#2dd4bf" /><stop offset="100%" stop-color="#0f766e" />
      </linearGradient>
      <radialGradient id="hdCoreGlow" gradientUnits="userSpaceOnUse" cx="330" cy="109.5" r="7">
        <stop offset="0%" stop-color="#ff6b5e" stop-opacity="0.9" /><stop offset="55%" stop-color="#ef4444" stop-opacity="0.4" /><stop offset="100%" stop-color="#ef4444" stop-opacity="0" />
      </radialGradient>
    </defs>
    <defs>
      <linearGradient id="hdBezel" x1="0" y1="94" x2="0" y2="162" gradientUnits="userSpaceOnUse">
        <stop offset="0%" stop-color="#99f6e4" /><stop offset="45%" stop-color="#2dd4bf" /><stop offset="100%" stop-color="#0f766e" />
      </linearGradient>
    </defs>
    <g filter="url(#nodeShadow)"><circle cx="330" cy="128" r="34" class="seat-hd" /></g>
    <circle cx="330" cy="128" r="34" stroke="url(#hdBezel)" class="seat-ring" />
    <circle cx="330" cy="128" r="31.8" class="seat-groove" />
    <circle cx="330" cy="128" r="35.4" class="seat-hairline" />
    <path class="hd-void" d="M339.5 146 L339.5 134 L337 134 L337 123 L335 123 L335 114 L333 112.5 L330 112.5 L327 112.5 L325 114 L325 123 L323 123 L323 134 L320.5 134 L320.5 146 Z" />
    <path class="hd-frame" d="M348 150 L348 135 L344.5 135 L344.5 124 L341 124 L341 114 L337 114 L337 109 L334.5 109 L334.5 104 L332.5 104 L332.5 101 L327.5 101 L327.5 104 L325.5 104 L325.5 109 L323 109 L323 114 L319 114 L319 124 L315.5 124 L315.5 135 L312 135 L312 150 Z M339.5 146 L339.5 134 L337 134 L337 123 L335 123 L335 114 L333 112.5 L330 112.5 L327 112.5 L325 114 L325 123 L323 123 L323 134 L320.5 134 L320.5 146 Z" fill-rule="evenodd" />
    <path class="hd-reed" d="M343 145 L343 125" /><path class="hd-reed" d="M317 145 L317 125" /><path class="hd-reed" d="M346 145 L346 125" /><path class="hd-reed" d="M314 145 L314 125" />
    <path class="hd-frame" d="M312 146 L348 146 L348 150 L312 150 Z" />
    <path class="hd-speed" d="M314 147 H346" /><path class="hd-speed" d="M314 148.2 H346" /><path class="hd-speed" d="M314 149.4 H346" />
    <path class="hd-thresh" d="M312 146 H348" />
    <circle class="hd-coreglow" cx="330" cy="109.5" r="7"><animate attributeName="r" values="7;7;7;11;7;7" keyTimes="0;0.06;0.52;0.56;0.6;1" dur="5s" repeatCount="indefinite" /></circle>
    <g class="hd-lit" filter="url(#hdBloom)">
      <animate attributeName="opacity" values="0.9;0.9;1;0.92;0.92" keyTimes="0;0.06;0.16;0.3;1" dur="5s" repeatCount="indefinite" /><path class="hd-beam" d="M339 141 L330 141" stroke-dasharray="9 40" stroke-dashoffset="0"><animate attributeName="stroke-dashoffset" values="0;0;9;9;-1.5;0;0" keyTimes="0;0.3;0.42;0.7;0.76;0.8;1" calcMode="spline" keySplines="0.4 0 0.2 1;0.3 0 0.2 1;0.5 0 1 1;0.2 0 0 1;0.3 0 0.4 1;0 0 1 1" dur="5s" repeatCount="indefinite" /></path><path class="hd-beam" d="M321 141 L330 141" stroke-dasharray="9 40" stroke-dashoffset="0"><animate attributeName="stroke-dashoffset" values="0;0;9;9;-1.5;0;0" keyTimes="0;0.3;0.42;0.7;0.76;0.8;1" calcMode="spline" keySplines="0.4 0 0.2 1;0.3 0 0.2 1;0.5 0 1 1;0.2 0 0 1;0.3 0 0.4 1;0 0 1 1" dur="5s" repeatCount="indefinite" /></path><path class="hd-beam" d="M338.5 134 L330 134" stroke-dasharray="8.5 40" stroke-dashoffset="0"><animate attributeName="stroke-dashoffset" values="0;0;8.5;8.5;-1.5;0;0" keyTimes="0;0.3;0.42;0.7;0.76;0.8;1" calcMode="spline" keySplines="0.4 0 0.2 1;0.3 0 0.2 1;0.5 0 1 1;0.2 0 0 1;0.3 0 0.4 1;0 0 1 1" dur="5s" repeatCount="indefinite" /></path><path class="hd-beam" d="M321.5 134 L330 134" stroke-dasharray="8.5 40" stroke-dashoffset="0"><animate attributeName="stroke-dashoffset" values="0;0;8.5;8.5;-1.5;0;0" keyTimes="0;0.3;0.42;0.7;0.76;0.8;1" calcMode="spline" keySplines="0.4 0 0.2 1;0.3 0 0.2 1;0.5 0 1 1;0.2 0 0 1;0.3 0 0.4 1;0 0 1 1" dur="5s" repeatCount="indefinite" /></path><path class="hd-beam" d="M336.5 126 L330 126" stroke-dasharray="6.5 40" stroke-dashoffset="0"><animate attributeName="stroke-dashoffset" values="0;0;6.5;6.5;-1.5;0;0" keyTimes="0;0.3;0.42;0.7;0.76;0.8;1" calcMode="spline" keySplines="0.4 0 0.2 1;0.3 0 0.2 1;0.5 0 1 1;0.2 0 0 1;0.3 0 0.4 1;0 0 1 1" dur="5s" repeatCount="indefinite" /></path><path class="hd-beam" d="M323.5 126 L330 126" stroke-dasharray="6.5 40" stroke-dashoffset="0"><animate attributeName="stroke-dashoffset" values="0;0;6.5;6.5;-1.5;0;0" keyTimes="0;0.3;0.42;0.7;0.76;0.8;1" calcMode="spline" keySplines="0.4 0 0.2 1;0.3 0 0.2 1;0.5 0 1 1;0.2 0 0 1;0.3 0 0.4 1;0 0 1 1" dur="5s" repeatCount="indefinite" /></path><path class="hd-beam" d="M334.5 119 L330 119" stroke-dasharray="4.5 40" stroke-dashoffset="0"><animate attributeName="stroke-dashoffset" values="0;0;4.5;4.5;-1.5;0;0" keyTimes="0;0.3;0.42;0.7;0.76;0.8;1" calcMode="spline" keySplines="0.4 0 0.2 1;0.3 0 0.2 1;0.5 0 1 1;0.2 0 0 1;0.3 0 0.4 1;0 0 1 1" dur="5s" repeatCount="indefinite" /></path><path class="hd-beam" d="M325.5 119 L330 119" stroke-dasharray="4.5 40" stroke-dashoffset="0"><animate attributeName="stroke-dashoffset" values="0;0;4.5;4.5;-1.5;0;0" keyTimes="0;0.3;0.42;0.7;0.76;0.8;1" calcMode="spline" keySplines="0.4 0 0.2 1;0.3 0 0.2 1;0.5 0 1 1;0.2 0 0 1;0.3 0 0.4 1;0 0 1 1" dur="5s" repeatCount="indefinite" /></path><path class="hd-beam" d="M333.5 115 L333.5 130" stroke-dasharray="15 40" stroke-dashoffset="0"><animate attributeName="stroke-dashoffset" values="0;0;15;15;-1.5;0;0" keyTimes="0;0.3;0.42;0.7;0.76;0.8;1" calcMode="spline" keySplines="0.4 0 0.2 1;0.3 0 0.2 1;0.5 0 1 1;0.2 0 0 1;0.3 0 0.4 1;0 0 1 1" dur="5s" repeatCount="indefinite" /></path><path class="hd-beam" d="M333.5 145 L333.5 130" stroke-dasharray="15 40" stroke-dashoffset="0"><animate attributeName="stroke-dashoffset" values="0;0;15;15;-1.5;0;0" keyTimes="0;0.3;0.42;0.7;0.76;0.8;1" calcMode="spline" keySplines="0.4 0 0.2 1;0.3 0 0.2 1;0.5 0 1 1;0.2 0 0 1;0.3 0 0.4 1;0 0 1 1" dur="5s" repeatCount="indefinite" /></path><path class="hd-beam" d="M326.5 115 L326.5 130" stroke-dasharray="15 40" stroke-dashoffset="0"><animate attributeName="stroke-dashoffset" values="0;0;15;15;-1.5;0;0" keyTimes="0;0.3;0.42;0.7;0.76;0.8;1" calcMode="spline" keySplines="0.4 0 0.2 1;0.3 0 0.2 1;0.5 0 1 1;0.2 0 0 1;0.3 0 0.4 1;0 0 1 1" dur="5s" repeatCount="indefinite" /></path><path class="hd-beam" d="M326.5 145 L326.5 130" stroke-dasharray="15 40" stroke-dashoffset="0"><animate attributeName="stroke-dashoffset" values="0;0;15;15;-1.5;0;0" keyTimes="0;0.3;0.42;0.7;0.76;0.8;1" calcMode="spline" keySplines="0.4 0 0.2 1;0.3 0 0.2 1;0.5 0 1 1;0.2 0 0 1;0.3 0 0.4 1;0 0 1 1" dur="5s" repeatCount="indefinite" /></path><circle class="hd-diode" cx="339" cy="141" r="1.5" /><circle class="hd-diode-hot" cx="339" cy="141" r="0.7" /><circle class="hd-diode" cx="321" cy="141" r="1.5" /><circle class="hd-diode-hot" cx="321" cy="141" r="0.7" /><circle class="hd-diode" cx="338.5" cy="134" r="1.5" /><circle class="hd-diode-hot" cx="338.5" cy="134" r="0.7" /><circle class="hd-diode" cx="321.5" cy="134" r="1.5" /><circle class="hd-diode-hot" cx="321.5" cy="134" r="0.7" /><circle class="hd-diode" cx="336.5" cy="126" r="1.5" /><circle class="hd-diode-hot" cx="336.5" cy="126" r="0.7" /><circle class="hd-diode" cx="323.5" cy="126" r="1.5" /><circle class="hd-diode-hot" cx="323.5" cy="126" r="0.7" /><circle class="hd-diode" cx="334.5" cy="119" r="1.5" /><circle class="hd-diode-hot" cx="334.5" cy="119" r="0.7" /><circle class="hd-diode" cx="325.5" cy="119" r="1.5" /><circle class="hd-diode-hot" cx="325.5" cy="119" r="0.7" /><path class="hd-sun" d="M330 109 L330 104" /><path class="hd-sun" d="M330 109 L327.4 104.6" /><path class="hd-sun" d="M330 109 L332.6 104.6" /><path class="hd-sun" d="M330 109 L325.6 106" /><path class="hd-sun" d="M330 109 L334.4 106" /><polygon class="hd-core" points="330,107 332.6,108.3 332.6,110.7 330,112 327.4,110.7 327.4,108.3" /><polygon class="hd-core-facet" points="330,107 332.6,108.3 330,109.5 327.4,108.3" /><circle class="hd-core-hot" cx="330" cy="109.5" r="0.9"><animate attributeName="r" values="0.9;0.9;2.6;0.9;0.9" keyTimes="0;0.52;0.56;0.62;1" dur="5s" repeatCount="indefinite" /></circle>
    </g>
    <rect class="hd-scan" x="321" y="114" width="18" height="1.3" opacity="0"><animate attributeName="opacity" values="0;0;0.85;0;0" keyTimes="0;0.16;0.23;0.3;1" dur="5s" repeatCount="indefinite" /><animateTransform attributeName="transform" type="translate" values="0 0;0 0;0 30;0 30" keyTimes="0;0.16;0.3;1" calcMode="spline" keySplines="0 0 1 1;0.4 0 0.6 1;0 0 1 1" dur="5s" repeatCount="indefinite" /></rect><polygon class="hd-tok-in" opacity="0" points="330,143 332.6,145.4 330,147.8 327.4,145.4"><animate attributeName="opacity" values="0;0;1;1;0;0" keyTimes="0;0.16;0.24;0.48;0.52;1" dur="5s" repeatCount="indefinite" /><animateTransform attributeName="transform" type="translate" values="0 0;0 0;0 -34;0 -34;0 -34" keyTimes="0;0.3;0.52;0.6;1" dur="5s" repeatCount="indefinite" /></polygon><polygon class="hd-tok-out" opacity="0" points="330,107.5 332,108.7 332,111 330,112.2 328,111 328,108.7"><animate attributeName="opacity" values="0;0;1;0;0" keyTimes="0;0.6;0.65;0.7;1" dur="5s" repeatCount="indefinite" /><animateTransform attributeName="transform" type="translate" values="0 0;0 0;0 -9;0 -9" keyTimes="0;0.6;0.7;1" dur="5s" repeatCount="indefinite" /></polygon><circle class="hd-flash" cx="330" cy="130" r="0" opacity="0"><animate attributeName="r" values="0;0;7;0;0" keyTimes="0;0.72;0.76;0.8;1" dur="5s" repeatCount="indefinite" /><animate attributeName="opacity" values="0;0;0.95;0;0" keyTimes="0;0.72;0.76;0.8;1" dur="5s" repeatCount="indefinite" /></circle>
    </g>
  </g></svg>
