<svg xmlns="http://www.w3.org/2000/svg" viewBox="88 38 124 124" width="124" height="124" role="img" aria-label="HALDIR historical profile mark"><title>HALDIR historical profile mark</title><desc>Archived design extracted from a historical portfolio SVG. This image makes no current product or release claim.</desc><defs><filter id="hdBloom" x="-40%" y="-40%" width="180%" height="180%">
      <feGaussianBlur stdDeviation="1.5" result="b" />
      <feMerge><feMergeNode in="b" /><feMergeNode in="SourceGraphic" /></feMerge>
    </filter>
    <radialGradient id="hdGrad" cx="50%" cy="40%" r="68%">
      <stop offset="0%" stop-color="#042f2a" />
      <stop offset="100%" stop-color="#10131a" />
    </radialGradient>
    <filter id="nodeShadow" x="-40%" y="-40%" width="180%" height="180%">
      <feDropShadow dx="0" dy="1.5" stdDeviation="2.4" flood-color="#000000" flood-opacity="0.38" />
    </filter>
    </defs><style>.seat-ring{fill: none; stroke-width: 2.2;}
.seat-groove{fill: none; stroke: #05070b; stroke-opacity: 0.5; stroke-width: 1;}
.seat-hairline{fill: none; stroke: #2b333d; stroke-opacity: 0.55; stroke-width: 1;}
.seat-hd{fill: url(#hdGrad);}
.hd-void{fill: #03211d;}
.hd-frame{fill: url(#haldirArch); stroke: #0f766e; stroke-width: 0.5; stroke-opacity: 0.7;}
.hd-speed{fill: none; stroke: #5eead4; stroke-width: 0.6; stroke-opacity: 0.4; stroke-linecap: round;}
.hd-thresh{fill: none; stroke: #2dd4bf; stroke-width: 1.6; stroke-linecap: round; stroke-opacity: 0.85;}
.hd-beam{fill: none; stroke: #ef4444; stroke-width: 1.4; stroke-linecap: round; stroke-opacity: 0.92;}
.hd-diode{fill: #ff3b47;}
.hd-diode-hot{fill: #ffe1dd;}
.hd-core{fill: #ef4444;}
.hd-core-facet{fill: #ff9d94; fill-opacity: 0.95;}
.hd-core-hot{fill: #fff1f0;}
.hd-coreglow{fill: url(#hdCoreGlow);}
.hd-sun{fill: none; stroke: #ff6b5e; stroke-width: 0.8; stroke-opacity: 0.85; stroke-linecap: round;}
.hd-scan{fill: #ffd9d4;}
.hd-tok-in{fill: #ff6b5e;}
.hd-tok-out{fill: #fff1f0;}
.hd-flash{fill: #fff1f0;}</style><g class="nodes"><g>
    <defs>
      <linearGradient id="haldirArch" x1="0" y1="73" x2="0" y2="122" gradientUnits="userSpaceOnUse">
        <stop offset="0%" stop-color="#99f6e4" /><stop offset="50%" stop-color="#2dd4bf" /><stop offset="100%" stop-color="#0f766e" />
      </linearGradient>
      <radialGradient id="hdCoreGlow" gradientUnits="userSpaceOnUse" cx="150" cy="81.5" r="7">
        <stop offset="0%" stop-color="#ff6b5e" stop-opacity="0.9" /><stop offset="55%" stop-color="#ef4444" stop-opacity="0.4" /><stop offset="100%" stop-color="#ef4444" stop-opacity="0" />
      </radialGradient>
    </defs>
    <defs>
      <linearGradient id="hdBezel" x1="0" y1="66" x2="0" y2="134" gradientUnits="userSpaceOnUse">
        <stop offset="0%" stop-color="#99f6e4" /><stop offset="45%" stop-color="#2dd4bf" /><stop offset="100%" stop-color="#0f766e" />
      </linearGradient>
    </defs>
    <g filter="url(#nodeShadow)"><circle cx="150" cy="100" r="34" class="seat-hd" /></g>
    <circle cx="150" cy="100" r="34" stroke="url(#hdBezel)" class="seat-ring" />
    <circle cx="150" cy="100" r="31.8" class="seat-groove" />
    <circle cx="150" cy="100" r="35.4" class="seat-hairline" />
    <path class="hd-void" d="M159.5 118 L159.5 106 L157 106 L157 95 L155 95 L155 86 L153 84.5 L150 84.5 L147 84.5 L145 86 L145 95 L143 95 L143 106 L140.5 106 L140.5 118 Z" />
    <path class="hd-frame" d="M168 122 L168 107 L164.5 107 L164.5 96 L161 96 L161 86 L157 86 L157 81 L154.5 81 L154.5 76 L152.5 76 L152.5 73 L147.5 73 L147.5 76 L145.5 76 L145.5 81 L143 81 L143 86 L139 86 L139 96 L135.5 96 L135.5 107 L132 107 L132 122 Z M159.5 118 L159.5 106 L157 106 L157 95 L155 95 L155 86 L153 84.5 L150 84.5 L147 84.5 L145 86 L145 95 L143 95 L143 106 L140.5 106 L140.5 118 Z" fill-rule="evenodd" />
    <path class="hd-frame" d="M132 118 L168 118 L168 122 L132 122 Z" />
    <path class="hd-speed" d="M134 119 H166" /><path class="hd-speed" d="M134 120.2 H166" /><path class="hd-speed" d="M134 121.4 H166" />
    <path class="hd-thresh" d="M132 118 H168" />
    <circle class="hd-coreglow" cx="150" cy="81.5" r="7"><animate attributeName="r" values="7;7;7;11;7;7" keyTimes="0;0.06;0.52;0.56;0.6;1" dur="5s" repeatCount="indefinite" /></circle>
    <g class="hd-lit" filter="url(#hdBloom)">
      <animate attributeName="opacity" values="0.9;0.9;1;0.92;0.92" keyTimes="0;0.06;0.16;0.3;1" dur="5s" repeatCount="indefinite" /><path class="hd-beam" d="M159 113 L150 113" stroke-dasharray="9 40" stroke-dashoffset="0"><animate attributeName="stroke-dashoffset" values="0;0;9;9;-1.5;0;0" keyTimes="0;0.3;0.42;0.7;0.76;0.8;1" calcMode="spline" keySplines="0.4 0 0.2 1;0.3 0 0.2 1;0.5 0 1 1;0.2 0 0 1;0.3 0 0.4 1;0 0 1 1" dur="5s" repeatCount="indefinite" /></path><path class="hd-beam" d="M141 113 L150 113" stroke-dasharray="9 40" stroke-dashoffset="0"><animate attributeName="stroke-dashoffset" values="0;0;9;9;-1.5;0;0" keyTimes="0;0.3;0.42;0.7;0.76;0.8;1" calcMode="spline" keySplines="0.4 0 0.2 1;0.3 0 0.2 1;0.5 0 1 1;0.2 0 0 1;0.3 0 0.4 1;0 0 1 1" dur="5s" repeatCount="indefinite" /></path><path class="hd-beam" d="M158.5 106 L150 106" stroke-dasharray="8.5 40" stroke-dashoffset="0"><animate attributeName="stroke-dashoffset" values="0;0;8.5;8.5;-1.5;0;0" keyTimes="0;0.3;0.42;0.7;0.76;0.8;1" calcMode="spline" keySplines="0.4 0 0.2 1;0.3 0 0.2 1;0.5 0 1 1;0.2 0 0 1;0.3 0 0.4 1;0 0 1 1" dur="5s" repeatCount="indefinite" /></path><path class="hd-beam" d="M141.5 106 L150 106" stroke-dasharray="8.5 40" stroke-dashoffset="0"><animate attributeName="stroke-dashoffset" values="0;0;8.5;8.5;-1.5;0;0" keyTimes="0;0.3;0.42;0.7;0.76;0.8;1" calcMode="spline" keySplines="0.4 0 0.2 1;0.3 0 0.2 1;0.5 0 1 1;0.2 0 0 1;0.3 0 0.4 1;0 0 1 1" dur="5s" repeatCount="indefinite" /></path><path class="hd-beam" d="M156.5 98 L150 98" stroke-dasharray="6.5 40" stroke-dashoffset="0"><animate attributeName="stroke-dashoffset" values="0;0;6.5;6.5;-1.5;0;0" keyTimes="0;0.3;0.42;0.7;0.76;0.8;1" calcMode="spline" keySplines="0.4 0 0.2 1;0.3 0 0.2 1;0.5 0 1 1;0.2 0 0 1;0.3 0 0.4 1;0 0 1 1" dur="5s" repeatCount="indefinite" /></path><path class="hd-beam" d="M143.5 98 L150 98" stroke-dasharray="6.5 40" stroke-dashoffset="0"><animate attributeName="stroke-dashoffset" values="0;0;6.5;6.5;-1.5;0;0" keyTimes="0;0.3;0.42;0.7;0.76;0.8;1" calcMode="spline" keySplines="0.4 0 0.2 1;0.3 0 0.2 1;0.5 0 1 1;0.2 0 0 1;0.3 0 0.4 1;0 0 1 1" dur="5s" repeatCount="indefinite" /></path><path class="hd-beam" d="M154.5 91 L150 91" stroke-dasharray="4.5 40" stroke-dashoffset="0"><animate attributeName="stroke-dashoffset" values="0;0;4.5;4.5;-1.5;0;0" keyTimes="0;0.3;0.42;0.7;0.76;0.8;1" calcMode="spline" keySplines="0.4 0 0.2 1;0.3 0 0.2 1;0.5 0 1 1;0.2 0 0 1;0.3 0 0.4 1;0 0 1 1" dur="5s" repeatCount="indefinite" /></path><path class="hd-beam" d="M145.5 91 L150 91" stroke-dasharray="4.5 40" stroke-dashoffset="0"><animate attributeName="stroke-dashoffset" values="0;0;4.5;4.5;-1.5;0;0" keyTimes="0;0.3;0.42;0.7;0.76;0.8;1" calcMode="spline" keySplines="0.4 0 0.2 1;0.3 0 0.2 1;0.5 0 1 1;0.2 0 0 1;0.3 0 0.4 1;0 0 1 1" dur="5s" repeatCount="indefinite" /></path><path class="hd-beam" d="M153.5 87 L153.5 102" stroke-dasharray="15 40" stroke-dashoffset="0"><animate attributeName="stroke-dashoffset" values="0;0;15;15;-1.5;0;0" keyTimes="0;0.3;0.42;0.7;0.76;0.8;1" calcMode="spline" keySplines="0.4 0 0.2 1;0.3 0 0.2 1;0.5 0 1 1;0.2 0 0 1;0.3 0 0.4 1;0 0 1 1" dur="5s" repeatCount="indefinite" /></path><path class="hd-beam" d="M153.5 117 L153.5 102" stroke-dasharray="15 40" stroke-dashoffset="0"><animate attributeName="stroke-dashoffset" values="0;0;15;15;-1.5;0;0" keyTimes="0;0.3;0.42;0.7;0.76;0.8;1" calcMode="spline" keySplines="0.4 0 0.2 1;0.3 0 0.2 1;0.5 0 1 1;0.2 0 0 1;0.3 0 0.4 1;0 0 1 1" dur="5s" repeatCount="indefinite" /></path><path class="hd-beam" d="M146.5 87 L146.5 102" stroke-dasharray="15 40" stroke-dashoffset="0"><animate attributeName="stroke-dashoffset" values="0;0;15;15;-1.5;0;0" keyTimes="0;0.3;0.42;0.7;0.76;0.8;1" calcMode="spline" keySplines="0.4 0 0.2 1;0.3 0 0.2 1;0.5 0 1 1;0.2 0 0 1;0.3 0 0.4 1;0 0 1 1" dur="5s" repeatCount="indefinite" /></path><path class="hd-beam" d="M146.5 117 L146.5 102" stroke-dasharray="15 40" stroke-dashoffset="0"><animate attributeName="stroke-dashoffset" values="0;0;15;15;-1.5;0;0" keyTimes="0;0.3;0.42;0.7;0.76;0.8;1" calcMode="spline" keySplines="0.4 0 0.2 1;0.3 0 0.2 1;0.5 0 1 1;0.2 0 0 1;0.3 0 0.4 1;0 0 1 1" dur="5s" repeatCount="indefinite" /></path><circle class="hd-diode" cx="159" cy="113" r="1.5" /><circle class="hd-diode-hot" cx="159" cy="113" r="0.7" /><circle class="hd-diode" cx="141" cy="113" r="1.5" /><circle class="hd-diode-hot" cx="141" cy="113" r="0.7" /><circle class="hd-diode" cx="158.5" cy="106" r="1.5" /><circle class="hd-diode-hot" cx="158.5" cy="106" r="0.7" /><circle class="hd-diode" cx="141.5" cy="106" r="1.5" /><circle class="hd-diode-hot" cx="141.5" cy="106" r="0.7" /><circle class="hd-diode" cx="156.5" cy="98" r="1.5" /><circle class="hd-diode-hot" cx="156.5" cy="98" r="0.7" /><circle class="hd-diode" cx="143.5" cy="98" r="1.5" /><circle class="hd-diode-hot" cx="143.5" cy="98" r="0.7" /><circle class="hd-diode" cx="154.5" cy="91" r="1.5" /><circle class="hd-diode-hot" cx="154.5" cy="91" r="0.7" /><circle class="hd-diode" cx="145.5" cy="91" r="1.5" /><circle class="hd-diode-hot" cx="145.5" cy="91" r="0.7" /><path class="hd-sun" d="M150 81 L150 76" /><path class="hd-sun" d="M150 81 L147.4 76.6" /><path class="hd-sun" d="M150 81 L152.6 76.6" /><path class="hd-sun" d="M150 81 L145.6 78" /><path class="hd-sun" d="M150 81 L154.4 78" /><polygon class="hd-core" points="150,79 152.6,80.3 152.6,82.7 150,84 147.4,82.7 147.4,80.3" /><polygon class="hd-core-facet" points="150,79 152.6,80.3 150,81.5 147.4,80.3" /><circle class="hd-core-hot" cx="150" cy="81.5" r="0.9"><animate attributeName="r" values="0.9;0.9;2.6;0.9;0.9" keyTimes="0;0.52;0.56;0.62;1" dur="5s" repeatCount="indefinite" /></circle>
    </g>
    <rect class="hd-scan" x="141" y="86" width="18" height="1.3" opacity="0"><animate attributeName="opacity" values="0;0;0.85;0;0" keyTimes="0;0.16;0.23;0.3;1" dur="5s" repeatCount="indefinite" /><animateTransform attributeName="transform" type="translate" values="0 0;0 0;0 30;0 30" keyTimes="0;0.16;0.3;1" calcMode="spline" keySplines="0 0 1 1;0.4 0 0.6 1;0 0 1 1" dur="5s" repeatCount="indefinite" /></rect><polygon class="hd-tok-in" opacity="0" points="150,115 152.6,117.4 150,119.8 147.4,117.4"><animate attributeName="opacity" values="0;0;1;1;0;0" keyTimes="0;0.16;0.24;0.48;0.52;1" dur="5s" repeatCount="indefinite" /><animateTransform attributeName="transform" type="translate" values="0 0;0 0;0 -34;0 -34;0 -34" keyTimes="0;0.3;0.52;0.6;1" dur="5s" repeatCount="indefinite" /></polygon><polygon class="hd-tok-out" opacity="0" points="150,79.5 152,80.7 152,83 150,84.2 148,83 148,80.7"><animate attributeName="opacity" values="0;0;1;0;0" keyTimes="0;0.6;0.65;0.7;1" dur="5s" repeatCount="indefinite" /><animateTransform attributeName="transform" type="translate" values="0 0;0 0;0 -9;0 -9" keyTimes="0;0.6;0.7;1" dur="5s" repeatCount="indefinite" /></polygon><circle class="hd-flash" cx="150" cy="102" r="0" opacity="0"><animate attributeName="r" values="0;0;7;0;0" keyTimes="0;0.72;0.76;0.8;1" dur="5s" repeatCount="indefinite" /><animate attributeName="opacity" values="0;0;0.95;0;0" keyTimes="0;0.72;0.76;0.8;1" dur="5s" repeatCount="indefinite" /></circle>
    </g>
    </g></svg>
