<svg xmlns="http://www.w3.org/2000/svg" viewBox="0 0 760 340" width="760" height="340" role="img" aria-label="Weekday contribution share over the last 500 days: 4528 total, peak Sun at 17.5%">
  <defs>
    <filter id="glow" x="-50%" y="-50%" width="200%" height="200%">
      <feGaussianBlur stdDeviation="5" result="b"/>
      <feMerge><feMergeNode in="b"/><feMergeNode in="SourceGraphic"/></feMerge>
    </filter>
  </defs>
  <style>
    :root { }
    .panel { fill: #ffffff; fill-opacity: 0.022; stroke: #ffffff; stroke-opacity: 0.07; }
    .title { font: 600 15px ui-monospace, SFMono-Regular, Menlo, monospace; fill: #67e8f9; }
    .subtitle { font: 500 11px ui-monospace, SFMono-Regular, Menlo, monospace; fill: #8b949e; }
    .center-num { font: 700 32px ui-monospace, SFMono-Regular, Menlo, monospace; fill: #22d3ee; letter-spacing: -1px; }
    .center-sub { font: 500 11px ui-monospace, SFMono-Regular, Menlo, monospace; fill: #8b949e; }
    .center-streak { font: 700 12px ui-monospace, SFMono-Regular, Menlo, monospace; fill: #fbbf24; }
    .legend-label { font: 500 13px ui-monospace, SFMono-Regular, Menlo, monospace; fill: #c9d1d9; }
    .legend-peak { font-weight: 700; fill: #22d3ee; }
    .legend-swatch { fill: #22d3ee; fill-opacity: 0.55; }
    .swatch-peak { fill-opacity: 1; }
    .slice-label { font: 700 12px ui-monospace, SFMono-Regular, Menlo, monospace; fill: #0b1f24; stroke: none; }
    .warning { font: 500 10px ui-monospace, SFMono-Regular, Menlo, monospace; fill: #fbbf24; }
    .slice { fill: #22d3ee; fill-opacity: 0.82; }
    .slice-peak { fill: #22d3ee; fill-opacity: 1; filter: url(#glow); }
    text { paint-order: stroke; stroke: #0d1117; stroke-width: 2.6; stroke-linejoin: round; }
    @media (prefers-reduced-motion: reduce) {
      animate, animateTransform { display: none; }
    }
  </style>
  <rect x="0.5" y="0.5" width="759" height="339" rx="16" class="panel"/>
  <text x="40" y="36" class="title">Where the week goes</text>
  <text x="720" y="36" text-anchor="end" class="subtitle">4,528 contributions · last 500 days</text>
  <g class="donut">
    
    <path d="M 189.66 60.01 A 132 132 0 0 1 294.44 113.93 L 257.35 141.14 A 86 86 0 0 0 189.08 106.01 Z" class="slice" style="transform-origin:188 192;opacity:1;fill:#22d3ee" transform="scale(1)"><title>Mon: 685 contributions · 15.1% of the last 500 days</title><animateTransform attributeName="transform" type="scale" values="0.82;1" begin="0.15s" dur="0.6s" fill="freeze" calcMode="spline" keyTimes="0;1" keySplines="0.2 0.8 0.2 1"/><animate attributeName="opacity" values="0;1" begin="0.15s" dur="0.6s" fill="freeze"/></path>
    <path d="M 296.37 116.63 A 132 132 0 0 1 312.57 235.66 L 269.16 220.45 A 86 86 0 0 0 258.60 142.90 Z" class="slice" style="transform-origin:188 192;opacity:1;fill:#34d399" transform="scale(1)"><title>Tue: 699 contributions · 15.4% of the last 500 days</title><animateTransform attributeName="transform" type="scale" values="0.82;1" begin="0.25s" dur="0.6s" fill="freeze" calcMode="spline" keyTimes="0;1" keySplines="0.2 0.8 0.2 1"/><animate attributeName="opacity" values="0;1" begin="0.25s" dur="0.6s" fill="freeze"/></path>
    <path d="M 311.43 238.78 A 132 132 0 0 1 257.73 304.08 L 233.43 265.02 A 86 86 0 0 0 268.42 222.48 Z" class="slice" style="transform-origin:188 192;opacity:1;fill:#a78bfa" transform="scale(1)"><title>Wed: 488 contributions · 10.8% of the last 500 days</title><animateTransform attributeName="transform" type="scale" values="0.82;1" begin="0.35s" dur="0.6s" fill="freeze" calcMode="spline" keyTimes="0;1" keySplines="0.2 0.8 0.2 1"/><animate attributeName="opacity" values="0;1" begin="0.35s" dur="0.6s" fill="freeze"/></path>
    <path d="M 254.89 305.80 A 132 132 0 0 1 163.97 321.79 L 172.34 276.56 A 86 86 0 0 0 231.58 266.14 Z" class="slice" style="transform-origin:188 192;opacity:1;fill:#60a5fa" transform="scale(1)"><title>Thu: 533 contributions · 11.8% of the last 500 days</title><animateTransform attributeName="transform" type="scale" values="0.82;1" begin="0.45s" dur="0.6s" fill="freeze" calcMode="spline" keyTimes="0;1" keySplines="0.2 0.8 0.2 1"/><animate attributeName="opacity" values="0;1" begin="0.45s" dur="0.6s" fill="freeze"/></path>
    <path d="M 160.71 321.15 A 132 132 0 0 1 80.28 268.29 L 117.82 241.70 A 86 86 0 0 0 170.22 276.14 Z" class="slice" style="transform-origin:188 192;opacity:1;fill:#fbbf24" transform="scale(1)"><title>Fri: 556 contributions · 12.3% of the last 500 days</title><animateTransform attributeName="transform" type="scale" values="0.82;1" begin="0.55s" dur="0.6s" fill="freeze" calcMode="spline" keyTimes="0;1" keySplines="0.2 0.8 0.2 1"/><animate attributeName="opacity" values="0;1" begin="0.55s" dur="0.6s" fill="freeze"/></path>
    <path d="M 78.39 265.56 A 132 132 0 0 1 69.59 133.65 L 110.86 153.99 A 86 86 0 0 0 116.59 239.92 Z" class="slice" style="transform-origin:188 192;opacity:1;fill:#fb7185" transform="scale(1)"><title>Sat: 774 contributions · 17.1% of the last 500 days</title><animateTransform attributeName="transform" type="scale" values="0.82;1" begin="0.65s" dur="0.6s" fill="freeze" calcMode="spline" keyTimes="0;1" keySplines="0.2 0.8 0.2 1"/><animate attributeName="opacity" values="0;1" begin="0.65s" dur="0.6s" fill="freeze"/></path>
    <path d="M 71.10 130.70 A 132 132 0 0 1 186.34 60.01 L 186.92 106.01 A 86 86 0 0 0 111.84 152.06 Z" class="slice slice-peak" style="transform-origin:188 192;opacity:1;fill:#f472b6" transform="scale(1)"><title>Sun: 793 contributions · 17.5% of the last 500 days</title><animate attributeName="opacity" values="1;0.68;1" dur="2.6s" begin="1.3s" repeatCount="indefinite"/><animateTransform attributeName="transform" type="scale" values="0.82;1" begin="0.75s" dur="0.6s" fill="freeze" calcMode="spline" keyTimes="0;1" keySplines="0.2 0.8 0.2 1"/></path>
    <text x="237.88" y="99.08" text-anchor="middle" class="slice-label">Mon</text>
    <text x="296.00" y="181.30" text-anchor="middle" class="slice-label">Tue</text>
    <text x="272.19" y="265.24" text-anchor="middle" class="slice-label">Wed</text>
    <text x="206.89" y="303.35" text-anchor="middle" class="slice-label">Thu</text>
    <text x="128.14" y="287.09" text-anchor="middle" class="slice-label">Fri</text>
    <text x="79.24" y="203.25" text-anchor="middle" class="slice-label">Sat</text>
    <text x="131.01" y="103.09" text-anchor="middle" class="slice-label">Sun</text>
    <text x="188" y="178" text-anchor="middle" class="center-num">4528</text>
    <text x="188" y="200" text-anchor="middle" class="center-sub">500 days</text>
    <text x="188" y="232" text-anchor="middle" class="center-streak">40-day streak</text>
  </g>
  <g class="legend">
    <rect x="388" y="111" width="12" height="12" rx="2" style="fill:#22d3ee" class="legend-swatch"/>
      <text x="410" y="120" class="legend-label">Mon</text>
      <text x="584" y="120" text-anchor="end" class="legend-label">15.1%</text>
    <rect x="388" y="135" width="12" height="12" rx="2" style="fill:#34d399" class="legend-swatch"/>
      <text x="410" y="144" class="legend-label">Tue</text>
      <text x="584" y="144" text-anchor="end" class="legend-label">15.4%</text>
    <rect x="388" y="159" width="12" height="12" rx="2" style="fill:#a78bfa" class="legend-swatch"/>
      <text x="410" y="168" class="legend-label">Wed</text>
      <text x="584" y="168" text-anchor="end" class="legend-label">10.8%</text>
    <rect x="388" y="183" width="12" height="12" rx="2" style="fill:#60a5fa" class="legend-swatch"/>
      <text x="410" y="192" class="legend-label">Thu</text>
      <text x="584" y="192" text-anchor="end" class="legend-label">11.8%</text>
    <rect x="388" y="207" width="12" height="12" rx="2" style="fill:#fbbf24" class="legend-swatch"/>
      <text x="410" y="216" class="legend-label">Fri</text>
      <text x="584" y="216" text-anchor="end" class="legend-label">12.3%</text>
    <rect x="388" y="231" width="12" height="12" rx="2" style="fill:#fb7185" class="legend-swatch"/>
      <text x="410" y="240" class="legend-label">Sat</text>
      <text x="584" y="240" text-anchor="end" class="legend-label">17.1%</text>
    <rect x="388" y="255" width="12" height="12" rx="2" style="fill:#f472b6" class="legend-swatch swatch-peak"/>
      <text x="410" y="264" class="legend-label legend-peak">Sun</text>
      <text x="584" y="264" text-anchor="end" class="legend-label legend-peak">17.5%</text>
  </g>
  
</svg>