<svg xmlns="http://www.w3.org/2000/svg" viewBox="0 0 760 340" width="760" height="340" role="img" aria-label="Weekday contribution share over the last 500 days: 4823 total, peak Sun at 19.0%">
  <defs>
    <filter id="glow" x="-50%" y="-50%" width="200%" height="200%">
      <feGaussianBlur stdDeviation="5" result="b"/>
      <feMerge><feMergeNode in="b"/><feMergeNode in="SourceGraphic"/></feMerge>
    </filter>
  </defs>
  <style>
    :root { }
    .panel { fill: #ffffff; fill-opacity: 0.022; stroke: #ffffff; stroke-opacity: 0.07; }
    .title { font: 600 15px ui-monospace, SFMono-Regular, Menlo, monospace; fill: #67e8f9; }
    .subtitle { font: 500 11px ui-monospace, SFMono-Regular, Menlo, monospace; fill: #8b949e; }
    .center-num { font: 700 32px ui-monospace, SFMono-Regular, Menlo, monospace; fill: #22d3ee; letter-spacing: -1px; }
    .center-sub { font: 500 11px ui-monospace, SFMono-Regular, Menlo, monospace; fill: #8b949e; }
    .center-streak { font: 700 12px ui-monospace, SFMono-Regular, Menlo, monospace; fill: #fbbf24; }
    .legend-label { font: 500 13px ui-monospace, SFMono-Regular, Menlo, monospace; fill: #c9d1d9; }
    .legend-peak { font-weight: 700; fill: #22d3ee; }
    .legend-swatch { fill: #22d3ee; fill-opacity: 0.55; }
    .swatch-peak { fill-opacity: 1; }
    .slice-label { font: 700 12px ui-monospace, SFMono-Regular, Menlo, monospace; fill: #0b1f24; stroke: none; }
    .warning { font: 500 10px ui-monospace, SFMono-Regular, Menlo, monospace; fill: #fbbf24; }
    .slice { fill: #22d3ee; fill-opacity: 0.82; }
    .slice-peak { fill: #22d3ee; fill-opacity: 1; filter: url(#glow); }
    text { paint-order: stroke; stroke: #0d1117; stroke-width: 2.6; stroke-linejoin: round; }
    @media (prefers-reduced-motion: reduce) {
      animate, animateTransform { display: none; }
    }
  </style>
  <rect x="0.5" y="0.5" width="759" height="339" rx="16" class="panel"/>
  <text x="40" y="36" class="title">Where the week goes</text>
  <text x="720" y="36" text-anchor="end" class="subtitle">4,823 contributions · last 500 days</text>
  <g class="donut">
    
    <path d="M 189.66 60.01 A 132 132 0 0 1 303.96 128.93 L 263.55 150.91 A 86 86 0 0 0 189.08 106.01 Z" class="slice" style="transform-origin:188 192;opacity:1;fill:#22d3ee" transform="scale(1)"><title>Mon: 833 contributions · 17.3% of the last 500 days</title><animateTransform attributeName="transform" type="scale" values="0.82;1" begin="0.15s" dur="0.6s" fill="freeze" calcMode="spline" keyTimes="0;1" keySplines="0.2 0.8 0.2 1"/><animate attributeName="opacity" values="0;1" begin="0.15s" dur="0.6s" fill="freeze"/></path>
    <path d="M 305.51 131.86 A 132 132 0 0 1 307.36 248.36 L 265.77 228.72 A 86 86 0 0 0 264.56 152.82 Z" class="slice" style="transform-origin:188 192;opacity:1;fill:#34d399" transform="scale(1)"><title>Tue: 721 contributions · 14.9% of the last 500 days</title><animateTransform attributeName="transform" type="scale" values="0.82;1" begin="0.25s" dur="0.6s" fill="freeze" calcMode="spline" keyTimes="0;1" keySplines="0.2 0.8 0.2 1"/><animate attributeName="opacity" values="0;1" begin="0.25s" dur="0.6s" fill="freeze"/></path>
    <path d="M 305.91 251.34 A 132 132 0 0 1 250.58 308.22 L 228.77 267.72 A 86 86 0 0 0 264.82 230.66 Z" class="slice" style="transform-origin:188 192;opacity:1;fill:#a78bfa" transform="scale(1)"><title>Wed: 488 contributions · 10.1% of the last 500 days</title><animateTransform attributeName="transform" type="scale" values="0.82;1" begin="0.35s" dur="0.6s" fill="freeze" calcMode="spline" keyTimes="0;1" keySplines="0.2 0.8 0.2 1"/><animate attributeName="opacity" values="0;1" begin="0.35s" dur="0.6s" fill="freeze"/></path>
    <path d="M 247.64 309.76 A 132 132 0 0 1 161.72 321.36 L 170.88 276.28 A 86 86 0 0 0 226.86 268.72 Z" class="slice" style="transform-origin:188 192;opacity:1;fill:#60a5fa" transform="scale(1)"><title>Thu: 533 contributions · 11.1% of the last 500 days</title><animateTransform attributeName="transform" type="scale" values="0.82;1" begin="0.45s" dur="0.6s" fill="freeze" calcMode="spline" keyTimes="0;1" keySplines="0.2 0.8 0.2 1"/><animate attributeName="opacity" values="0;1" begin="0.45s" dur="0.6s" fill="freeze"/></path>
    <path d="M 158.48 320.66 A 132 132 0 0 1 82.60 271.47 L 119.33 243.77 A 86 86 0 0 0 168.77 275.82 Z" class="slice" style="transform-origin:188 192;opacity:1;fill:#fbbf24" transform="scale(1)"><title>Fri: 556 contributions · 11.5% of the last 500 days</title><animateTransform attributeName="transform" type="scale" values="0.82;1" begin="0.55s" dur="0.6s" fill="freeze" calcMode="spline" keyTimes="0;1" keySplines="0.2 0.8 0.2 1"/><animate attributeName="opacity" values="0;1" begin="0.55s" dur="0.6s" fill="freeze"/></path>
    <path d="M 80.64 268.79 A 132 132 0 0 1 64.57 145.22 L 107.58 161.52 A 86 86 0 0 0 118.05 242.03 Z" class="slice" style="transform-origin:188 192;opacity:1;fill:#fb7185" transform="scale(1)"><title>Sat: 774 contributions · 16.0% of the last 500 days</title><animateTransform attributeName="transform" type="scale" values="0.82;1" begin="0.65s" dur="0.6s" fill="freeze" calcMode="spline" keyTimes="0;1" keySplines="0.2 0.8 0.2 1"/><animate attributeName="opacity" values="0;1" begin="0.65s" dur="0.6s" fill="freeze"/></path>
    <path d="M 65.78 142.13 A 132 132 0 0 1 186.34 60.01 L 186.92 106.01 A 86 86 0 0 0 108.37 159.51 Z" class="slice slice-peak" style="transform-origin:188 192;opacity:1;fill:#f472b6" transform="scale(1)"><title>Sun: 918 contributions · 19.0% of the last 500 days</title><animate attributeName="opacity" values="1;0.68;1" dur="2.6s" begin="1.3s" repeatCount="indefinite"/><animateTransform attributeName="transform" type="scale" values="0.82;1" begin="0.75s" dur="0.6s" fill="freeze" calcMode="spline" keyTimes="0;1" keySplines="0.2 0.8 0.2 1"/></path>
    <text x="244.28" y="102.66" text-anchor="middle" class="slice-label">Mon</text>
    <text x="296.99" y="194.26" text-anchor="middle" class="slice-label">Tue</text>
    <text x="266.13" y="272.00" text-anchor="middle" class="slice-label">Wed</text>
    <text x="202.58" y="304.02" text-anchor="middle" class="slice-label">Thu</text>
    <text x="128.71" y="287.46" text-anchor="middle" class="slice-label">Fri</text>
    <text x="79.91" y="210.05" text-anchor="middle" class="slice-label">Sat</text>
    <text x="126.64" y="105.91" text-anchor="middle" class="slice-label">Sun</text>
    <text x="188" y="178" text-anchor="middle" class="center-num">4823</text>
    <text x="188" y="200" text-anchor="middle" class="center-sub">500 days</text>
    <text x="188" y="232" text-anchor="middle" class="center-streak">42-day streak</text>
  </g>
  <g class="legend">
    <rect x="388" y="111" width="12" height="12" rx="2" style="fill:#22d3ee" class="legend-swatch"/>
      <text x="410" y="120" class="legend-label">Mon</text>
      <text x="584" y="120" text-anchor="end" class="legend-label">17.3%</text>
    <rect x="388" y="135" width="12" height="12" rx="2" style="fill:#34d399" class="legend-swatch"/>
      <text x="410" y="144" class="legend-label">Tue</text>
      <text x="584" y="144" text-anchor="end" class="legend-label">14.9%</text>
    <rect x="388" y="159" width="12" height="12" rx="2" style="fill:#a78bfa" class="legend-swatch"/>
      <text x="410" y="168" class="legend-label">Wed</text>
      <text x="584" y="168" text-anchor="end" class="legend-label">10.1%</text>
    <rect x="388" y="183" width="12" height="12" rx="2" style="fill:#60a5fa" class="legend-swatch"/>
      <text x="410" y="192" class="legend-label">Thu</text>
      <text x="584" y="192" text-anchor="end" class="legend-label">11.1%</text>
    <rect x="388" y="207" width="12" height="12" rx="2" style="fill:#fbbf24" class="legend-swatch"/>
      <text x="410" y="216" class="legend-label">Fri</text>
      <text x="584" y="216" text-anchor="end" class="legend-label">11.5%</text>
    <rect x="388" y="231" width="12" height="12" rx="2" style="fill:#fb7185" class="legend-swatch"/>
      <text x="410" y="240" class="legend-label">Sat</text>
      <text x="584" y="240" text-anchor="end" class="legend-label">16.0%</text>
    <rect x="388" y="255" width="12" height="12" rx="2" style="fill:#f472b6" class="legend-swatch swatch-peak"/>
      <text x="410" y="264" class="legend-label legend-peak">Sun</text>
      <text x="584" y="264" text-anchor="end" class="legend-label legend-peak">19.0%</text>
  </g>
  
</svg>