<svg xmlns="http://www.w3.org/2000/svg" viewBox="0 0 760 340" width="760" height="340" role="img" aria-label="Weekday contribution share over the last 500 days: 5316 total, peak Sun at 18.5%">
  <defs>
    <filter id="glow" x="-50%" y="-50%" width="200%" height="200%">
      <feGaussianBlur stdDeviation="5" result="b"/>
      <feMerge><feMergeNode in="b"/><feMergeNode in="SourceGraphic"/></feMerge>
    </filter>
  </defs>
  <style>
    .panel { fill: #ffffff; fill-opacity: 0.022; stroke: #ffffff; stroke-opacity: 0.07; }
    .title { font: 600 15px ui-monospace, SFMono-Regular, Menlo, monospace; fill: #67e8f9; }
    .subtitle { font: 500 11px ui-monospace, SFMono-Regular, Menlo, monospace; fill: #8b949e; }
    .center-num { font: 700 32px ui-monospace, SFMono-Regular, Menlo, monospace; fill: #22d3ee; letter-spacing: -1px; }
    .center-sub { font: 500 11px ui-monospace, SFMono-Regular, Menlo, monospace; fill: #8b949e; }
    .center-streak { font: 700 12px ui-monospace, SFMono-Regular, Menlo, monospace; fill: #fbbf24; }
    .legend-label { font: 500 13px ui-monospace, SFMono-Regular, Menlo, monospace; fill: #c9d1d9; }
    .legend-peak { font-weight: 700; fill: #22d3ee; }
    .legend-swatch { fill: #22d3ee; fill-opacity: 0.55; }
    .swatch-peak { fill-opacity: 1; }
    .slice-label { font: 700 12px ui-monospace, SFMono-Regular, Menlo, monospace; fill: #0b1f24; stroke: none; }
    .warning { font: 500 10px ui-monospace, SFMono-Regular, Menlo, monospace; fill: #fbbf24; }
    .slice { fill: #22d3ee; fill-opacity: 0.82; }
    .slice-peak { fill: #22d3ee; fill-opacity: 1; filter: url(#glow); }
    text { paint-order: stroke; stroke: #0d1117; stroke-width: 2.6; stroke-linejoin: round; }
    @media (prefers-reduced-motion: reduce) {
      animate, animateTransform { display: none; }
    }
  </style>
  <rect x="0.5" y="0.5" width="759" height="339" rx="16" class="panel"/>
  <text x="40" y="36" class="title">Where the week goes</text>
  <text x="720" y="36" text-anchor="end" class="subtitle">5,316 contributions · last 500 days</text>
  <g class="donut">
    
    <path d="M 189.66 60.01 A 132 132 0 0 1 301.00 123.77 L 261.62 147.54 A 86 86 0 0 0 189.08 106.01 Z" class="slice" style="transform-origin:188 192;opacity:1;fill:#22d3ee" transform="scale(1)"><title>Mon: 880 contributions · 16.6% of the last 500 days</title><animateTransform attributeName="transform" type="scale" values="0.82;1" begin="0.15s" dur="0.6s" fill="freeze" calcMode="spline" keyTimes="0;1" keySplines="0.2 0.8 0.2 1"/><animate attributeName="opacity" values="0;1" begin="0.15s" dur="0.6s" fill="freeze"/></path>
    <path d="M 302.67 126.63 A 132 132 0 0 1 311.98 237.30 L 268.78 221.51 A 86 86 0 0 0 262.71 149.41 Z" class="slice" style="transform-origin:188 192;opacity:1;fill:#34d399" transform="scale(1)"><title>Tue: 756 contributions · 14.2% of the last 500 days</title><animateTransform attributeName="transform" type="scale" values="0.82;1" begin="0.25s" dur="0.6s" fill="freeze" calcMode="spline" keyTimes="0;1" keySplines="0.2 0.8 0.2 1"/><animate attributeName="opacity" values="0;1" begin="0.25s" dur="0.6s" fill="freeze"/></path>
    <path d="M 310.81 240.40 A 132 132 0 0 1 244.84 311.14 L 225.03 269.62 A 86 86 0 0 0 268.01 223.53 Z" class="slice" style="transform-origin:188 192;opacity:1;fill:#a78bfa" transform="scale(1)"><title>Wed: 656 contributions · 12.3% of the last 500 days</title><animateTransform attributeName="transform" type="scale" values="0.82;1" begin="0.35s" dur="0.6s" fill="freeze" calcMode="spline" keyTimes="0;1" keySplines="0.2 0.8 0.2 1"/><animate attributeName="opacity" values="0;1" begin="0.35s" dur="0.6s" fill="freeze"/></path>
    <path d="M 241.83 312.53 A 132 132 0 0 1 155.67 319.98 L 166.93 275.38 A 86 86 0 0 0 223.07 270.52 Z" class="slice" style="transform-origin:188 192;opacity:1;fill:#60a5fa" transform="scale(1)"><title>Thu: 586 contributions · 11.0% of the last 500 days</title><animateTransform attributeName="transform" type="scale" values="0.82;1" begin="0.45s" dur="0.6s" fill="freeze" calcMode="spline" keyTimes="0;1" keySplines="0.2 0.8 0.2 1"/><animate attributeName="opacity" values="0;1" begin="0.45s" dur="0.6s" fill="freeze"/></path>
    <path d="M 152.46 319.13 A 132 132 0 0 1 78.79 266.14 L 116.85 240.31 A 86 86 0 0 0 164.85 274.82 Z" class="slice" style="transform-origin:188 192;opacity:1;fill:#fbbf24" transform="scale(1)"><title>Fri: 615 contributions · 11.6% of the last 500 days</title><animateTransform attributeName="transform" type="scale" values="0.82;1" begin="0.55s" dur="0.6s" fill="freeze" calcMode="spline" keyTimes="0;1" keySplines="0.2 0.8 0.2 1"/><animate attributeName="opacity" values="0;1" begin="0.55s" dur="0.6s" fill="freeze"/></path>
    <path d="M 76.96 263.38 A 132 132 0 0 1 66.05 141.47 L 108.55 159.08 A 86 86 0 0 0 115.66 238.50 Z" class="slice" style="transform-origin:188 192;opacity:1;fill:#fb7185" transform="scale(1)"><title>Sat: 837 contributions · 15.7% of the last 500 days</title><animateTransform attributeName="transform" type="scale" values="0.82;1" begin="0.65s" dur="0.6s" fill="freeze" calcMode="spline" keyTimes="0;1" keySplines="0.2 0.8 0.2 1"/><animate attributeName="opacity" values="0;1" begin="0.65s" dur="0.6s" fill="freeze"/></path>
    <path d="M 67.36 138.42 A 132 132 0 0 1 186.34 60.01 L 186.92 106.01 A 86 86 0 0 0 109.40 157.09 Z" class="slice slice-peak" style="transform-origin:188 192;opacity:1;fill:#f472b6" transform="scale(1)"><title>Sun: 986 contributions · 18.5% of the last 500 days</title><animate attributeName="opacity" values="1;0.68;1" dur="2.6s" begin="1.3s" repeatCount="indefinite"/><animateTransform attributeName="transform" type="scale" values="0.82;1" begin="0.75s" dur="0.6s" fill="freeze" calcMode="spline" keyTimes="0;1" keySplines="0.2 0.8 0.2 1"/></path>
    <text x="242.16" y="101.41" text-anchor="middle" class="slice-label">Mon</text>
    <text x="296.62" y="186.86" text-anchor="middle" class="slice-label">Tue</text>
    <text x="267.71" y="270.34" text-anchor="middle" class="slice-label">Wed</text>
    <text x="197.39" y="304.59" text-anchor="middle" class="slice-label">Thu</text>
    <text x="124.36" y="284.49" text-anchor="middle" class="slice-label">Fri</text>
    <text x="79.43" y="205.71" text-anchor="middle" class="slice-label">Sat</text>
    <text x="128.02" y="104.99" text-anchor="middle" class="slice-label">Sun</text>
    <text x="188" y="178" text-anchor="middle" class="center-num">5316</text>
    <text x="188" y="200" text-anchor="middle" class="center-sub">500 days</text>
    <text x="188" y="232" text-anchor="middle" class="center-streak">56-day streak</text>
  </g>
  <g class="legend">
    <rect x="388" y="111" width="12" height="12" rx="2" style="fill:#22d3ee" class="legend-swatch"/>
      <text x="410" y="120" class="legend-label">Mon</text>
      <text x="584" y="120" text-anchor="end" class="legend-label">16.6%</text>
    <rect x="388" y="135" width="12" height="12" rx="2" style="fill:#34d399" class="legend-swatch"/>
      <text x="410" y="144" class="legend-label">Tue</text>
      <text x="584" y="144" text-anchor="end" class="legend-label">14.2%</text>
    <rect x="388" y="159" width="12" height="12" rx="2" style="fill:#a78bfa" class="legend-swatch"/>
      <text x="410" y="168" class="legend-label">Wed</text>
      <text x="584" y="168" text-anchor="end" class="legend-label">12.3%</text>
    <rect x="388" y="183" width="12" height="12" rx="2" style="fill:#60a5fa" class="legend-swatch"/>
      <text x="410" y="192" class="legend-label">Thu</text>
      <text x="584" y="192" text-anchor="end" class="legend-label">11.0%</text>
    <rect x="388" y="207" width="12" height="12" rx="2" style="fill:#fbbf24" class="legend-swatch"/>
      <text x="410" y="216" class="legend-label">Fri</text>
      <text x="584" y="216" text-anchor="end" class="legend-label">11.6%</text>
    <rect x="388" y="231" width="12" height="12" rx="2" style="fill:#fb7185" class="legend-swatch"/>
      <text x="410" y="240" class="legend-label">Sat</text>
      <text x="584" y="240" text-anchor="end" class="legend-label">15.7%</text>
    <rect x="388" y="255" width="12" height="12" rx="2" style="fill:#f472b6" class="legend-swatch swatch-peak"/>
      <text x="410" y="264" class="legend-label legend-peak">Sun</text>
      <text x="584" y="264" text-anchor="end" class="legend-label legend-peak">18.5%</text>
  </g>
  
</svg>